<mxfile host="app.diagrams.net" modified="2022-08-23T17:29:32.178Z" agent="5.0 (Windows NT 10.0; Win64; x64) AppleWebKit/537.36 (KHTML, like Gecko) Chrome/104.0.0.0 Safari/537.36" etag="m_iRaC79ryEynAnQp1zy" version="20.2.6" type="github">
  <diagram id="cDS2AxNONFs85x3WoPjF" name="Curso Micronaut">
    <mxGraphModel dx="1289" dy="757" grid="1" gridSize="10" guides="1" tooltips="1" connect="1" arrows="1" fold="1" page="1" pageScale="1" pageWidth="827" pageHeight="1169" math="0" shadow="0">
      <root>
        <mxCell id="0" />
        <mxCell id="1" parent="0" />
        <mxCell id="vRn6mUdnOCqso2IrHkOI-3" value="" style="edgeStyle=orthogonalEdgeStyle;rounded=0;orthogonalLoop=1;jettySize=auto;html=1;" edge="1" parent="1" source="vRn6mUdnOCqso2IrHkOI-1" target="vRn6mUdnOCqso2IrHkOI-2">
          <mxGeometry relative="1" as="geometry" />
        </mxCell>
        <mxCell id="vRn6mUdnOCqso2IrHkOI-1" value="veiculo-service" style="rounded=0;whiteSpace=wrap;html=1;" vertex="1" parent="1">
          <mxGeometry x="340" y="60" width="120" height="60" as="geometry" />
        </mxCell>
        <mxCell id="vRn6mUdnOCqso2IrHkOI-2" value="" style="sketch=0;outlineConnect=0;fontColor=#232F3E;gradientColor=none;fillColor=#2E27AD;strokeColor=none;dashed=0;verticalLabelPosition=bottom;verticalAlign=top;align=center;html=1;fontSize=12;fontStyle=0;aspect=fixed;pointerEvents=1;shape=mxgraph.aws4.rds_postgresql_instance_alt;" vertex="1" parent="1">
          <mxGeometry x="361" y="160" width="78" height="78" as="geometry" />
        </mxCell>
        <mxCell id="vRn6mUdnOCqso2IrHkOI-10" value="" style="edgeStyle=orthogonalEdgeStyle;rounded=0;orthogonalLoop=1;jettySize=auto;html=1;" edge="1" parent="1" source="vRn6mUdnOCqso2IrHkOI-4" target="vRn6mUdnOCqso2IrHkOI-8">
          <mxGeometry relative="1" as="geometry" />
        </mxCell>
        <mxCell id="vRn6mUdnOCqso2IrHkOI-16" value="" style="edgeStyle=orthogonalEdgeStyle;rounded=0;orthogonalLoop=1;jettySize=auto;html=1;" edge="1" parent="1" source="vRn6mUdnOCqso2IrHkOI-4" target="vRn6mUdnOCqso2IrHkOI-15">
          <mxGeometry relative="1" as="geometry" />
        </mxCell>
        <mxCell id="vRn6mUdnOCqso2IrHkOI-4" value="loja-service" style="rounded=0;whiteSpace=wrap;html=1;" vertex="1" parent="1">
          <mxGeometry x="60" y="60" width="120" height="60" as="geometry" />
        </mxCell>
        <mxCell id="vRn6mUdnOCqso2IrHkOI-7" value="" style="dashed=0;outlineConnect=0;html=1;align=center;labelPosition=center;verticalLabelPosition=bottom;verticalAlign=top;shape=mxgraph.webicons.mongodb;gradientColor=#DFDEDE" vertex="1" parent="1">
          <mxGeometry x="267" y="288.8" width="102.4" height="102.4" as="geometry" />
        </mxCell>
        <mxCell id="vRn6mUdnOCqso2IrHkOI-9" style="edgeStyle=orthogonalEdgeStyle;rounded=0;orthogonalLoop=1;jettySize=auto;html=1;entryX=0;entryY=0.5;entryDx=0;entryDy=0;" edge="1" parent="1" source="vRn6mUdnOCqso2IrHkOI-8" target="vRn6mUdnOCqso2IrHkOI-1">
          <mxGeometry relative="1" as="geometry">
            <Array as="points">
              <mxPoint x="300" y="90" />
              <mxPoint x="300" y="90" />
            </Array>
          </mxGeometry>
        </mxCell>
        <mxCell id="vRn6mUdnOCqso2IrHkOI-14" style="edgeStyle=orthogonalEdgeStyle;rounded=0;orthogonalLoop=1;jettySize=auto;html=1;entryX=0.48;entryY=-0.048;entryDx=0;entryDy=0;entryPerimeter=0;" edge="1" parent="1" target="vRn6mUdnOCqso2IrHkOI-11">
          <mxGeometry relative="1" as="geometry">
            <mxPoint x="300" y="90" as="sourcePoint" />
            <Array as="points">
              <mxPoint x="291" y="90" />
            </Array>
          </mxGeometry>
        </mxCell>
        <mxCell id="vRn6mUdnOCqso2IrHkOI-8" value="" style="verticalLabelPosition=bottom;dashed=0;shadow=0;html=1;align=center;verticalAlign=top;shape=mxgraph.cabinets.cb_3p;" vertex="1" parent="1">
          <mxGeometry x="240" y="65" width="27" height="50" as="geometry" />
        </mxCell>
        <mxCell id="vRn6mUdnOCqso2IrHkOI-11" value="" style="sketch=0;aspect=fixed;html=1;points=[];align=center;image;fontSize=12;image=img/lib/mscae/Cache_Redis_Product.svg;" vertex="1" parent="1">
          <mxGeometry x="267" y="150" width="50" height="42" as="geometry" />
        </mxCell>
        <mxCell id="vRn6mUdnOCqso2IrHkOI-18" value="" style="edgeStyle=orthogonalEdgeStyle;rounded=0;orthogonalLoop=1;jettySize=auto;html=1;" edge="1" parent="1" source="vRn6mUdnOCqso2IrHkOI-15" target="vRn6mUdnOCqso2IrHkOI-17">
          <mxGeometry relative="1" as="geometry" />
        </mxCell>
        <mxCell id="vRn6mUdnOCqso2IrHkOI-15" value="" style="sketch=0;outlineConnect=0;fontColor=#232F3E;gradientColor=none;fillColor=#B0084D;strokeColor=none;dashed=0;verticalLabelPosition=bottom;verticalAlign=top;align=center;html=1;fontSize=12;fontStyle=0;aspect=fixed;pointerEvents=1;shape=mxgraph.aws4.topic;" vertex="1" parent="1">
          <mxGeometry x="81" y="192" width="78" height="67" as="geometry" />
        </mxCell>
        <mxCell id="vRn6mUdnOCqso2IrHkOI-19" value="" style="edgeStyle=orthogonalEdgeStyle;rounded=0;orthogonalLoop=1;jettySize=auto;html=1;" edge="1" parent="1" source="vRn6mUdnOCqso2IrHkOI-17" target="vRn6mUdnOCqso2IrHkOI-7">
          <mxGeometry relative="1" as="geometry" />
        </mxCell>
        <mxCell id="vRn6mUdnOCqso2IrHkOI-17" value="relatorio-service" style="rounded=0;whiteSpace=wrap;html=1;" vertex="1" parent="1">
          <mxGeometry x="60" y="310" width="120" height="60" as="geometry" />
        </mxCell>
        <mxCell id="vRn6mUdnOCqso2IrHkOI-20" value="" style="swimlane;startSize=0;" vertex="1" parent="1">
          <mxGeometry x="40" y="38" width="430" height="362" as="geometry" />
        </mxCell>
        <mxCell id="vRn6mUdnOCqso2IrHkOI-23" value="" style="edgeStyle=orthogonalEdgeStyle;rounded=0;orthogonalLoop=1;jettySize=auto;html=1;" edge="1" parent="1" source="vRn6mUdnOCqso2IrHkOI-21" target="vRn6mUdnOCqso2IrHkOI-22">
          <mxGeometry relative="1" as="geometry" />
        </mxCell>
        <mxCell id="vRn6mUdnOCqso2IrHkOI-21" value="" style="sketch=0;outlineConnect=0;fontColor=#232F3E;gradientColor=none;fillColor=#232F3D;strokeColor=none;dashed=0;verticalLabelPosition=bottom;verticalAlign=top;align=center;html=1;fontSize=12;fontStyle=0;aspect=fixed;pointerEvents=1;shape=mxgraph.aws4.client;" vertex="1" parent="1">
          <mxGeometry x="-120" y="39" width="78" height="76" as="geometry" />
        </mxCell>
        <mxCell id="vRn6mUdnOCqso2IrHkOI-25" value="" style="edgeStyle=orthogonalEdgeStyle;rounded=0;orthogonalLoop=1;jettySize=auto;html=1;" edge="1" parent="1" source="vRn6mUdnOCqso2IrHkOI-22" target="vRn6mUdnOCqso2IrHkOI-24">
          <mxGeometry relative="1" as="geometry" />
        </mxCell>
        <mxCell id="vRn6mUdnOCqso2IrHkOI-22" value="api-gateway" style="rounded=0;whiteSpace=wrap;html=1;" vertex="1" parent="1">
          <mxGeometry x="-141" y="160" width="120" height="60" as="geometry" />
        </mxCell>
        <mxCell id="vRn6mUdnOCqso2IrHkOI-26" value="" style="edgeStyle=orthogonalEdgeStyle;rounded=0;orthogonalLoop=1;jettySize=auto;html=1;entryX=0;entryY=0.5;entryDx=0;entryDy=0;" edge="1" parent="1" source="vRn6mUdnOCqso2IrHkOI-24" target="vRn6mUdnOCqso2IrHkOI-20">
          <mxGeometry relative="1" as="geometry" />
        </mxCell>
        <mxCell id="vRn6mUdnOCqso2IrHkOI-24" value="consul" style="rounded=0;whiteSpace=wrap;html=1;" vertex="1" parent="1">
          <mxGeometry x="-141" y="259" width="120" height="60" as="geometry" />
        </mxCell>
      </root>
    </mxGraphModel>
  </diagram>
</mxfile>
